<?xml version="1.0" standalone="no"?>
<!DOCTYPE svg PUBLIC "-//W3C//DTD SVG 20010904//EN"
 "http://www.w3.org/TR/2001/REC-SVG-20010904/DTD/svg10.dtd">
<svg version="1.0" xmlns="http://www.w3.org/2000/svg"
 width="1200.000000pt" height="900.000000pt" viewBox="0 0 1200.000000 900.000000"
 preserveAspectRatio="xMidYMid meet">

<g transform="translate(0.000000,900.000000) scale(0.100000,-0.100000)"
fill="#000000" stroke="none">
<path d="M3530 7686 c-177 -58 -186 -62 -170 -81 8 -10 41 -3 162 36 84 26
153 47 155 46 1 -2 -36 -130 -84 -286 -50 -164 -82 -286 -77 -291 13 -13 384
108 384 125 0 8 -4 16 -8 19 -5 3 -78 -17 -162 -44 -85 -27 -156 -47 -158 -45
-3 2 32 123 77 269 44 146 81 274 81 286 0 29 -23 25 -200 -34z"/>
<path d="M5758 7587 c-210 -77 -373 -299 -449 -613 -17 -71 -33 -135 -35 -141
-3 -10 -52 -13 -206 -13 l-203 0 -225 -85 -225 -85 -218 73 c-212 70 -219 71
-233 53 -12 -17 -14 -328 -14 -2188 l0 -2168 29 -32 29 -33 2079 0 c1986 0
2080 1 2106 18 16 10 32 29 37 43 6 16 10 677 10 1746 0 1635 1 1720 18 1712
223 -99 431 -98 642 3 177 85 320 262 370 459 27 103 27 245 0 348 -50 197
-191 371 -370 459 -334 163 -720 56 -920 -255 l-43 -68 -316 0 -316 0 -23 103
c-140 613 -597 873 -951 542 l-48 -45 -54 50 c-30 28 -91 69 -136 92 -75 37
-90 41 -175 45 -80 3 -102 0 -160 -20z m314 -70 c40 -20 97 -58 127 -86 l54
-50 -22 -33 c-72 -107 -149 -306 -181 -470 l-11 -58 -359 0 -358 0 18 83 c58
263 175 474 320 576 87 61 155 82 257 78 70 -3 92 -8 155 -40z m707 24 c160
-50 304 -206 391 -425 30 -74 80 -252 80 -282 0 -20 -709 -21 -714 -1 -2 6
-16 61 -30 122 -34 142 -104 301 -179 407 -10 15 -5 24 31 61 118 120 274 164
421 118z m-411 -345 c40 -82 80 -200 106 -313 l14 -63 -199 0 c-109 0 -199 3
-199 8 0 22 52 218 73 273 29 76 71 162 100 203 l20 29 22 -27 c12 -16 40 -65
63 -110z m2419 -61 c289 -97 468 -361 450 -664 -19 -338 -282 -598 -622 -618
-267 -15 -517 136 -630 382 -46 99 -59 165 -59 285 2 199 82 367 238 498 68
57 195 119 281 137 102 21 243 13 342 -20z m-2761 -428 c-12 -143 -15 -156
-46 -172 -15 -8 -35 -31 -45 -51 -14 -31 -15 -43 -6 -75 31 -103 170 -108 211
-9 19 47 -1 105 -46 132 -31 18 -34 24 -30 57 3 20 8 73 11 118 l7 82 588 1
587 0 7 -40 c3 -22 9 -74 13 -114 l6 -74 -42 -40 c-33 -31 -41 -46 -41 -75 0
-74 42 -117 116 -117 53 0 104 53 104 108 0 44 -28 88 -65 102 -19 7 -23 18
-29 92 -4 46 -9 100 -13 121 l-6 37 311 0 311 0 -14 -32 c-21 -52 -45 -182
-45 -247 0 -74 22 -188 50 -264 43 -115 167 -268 261 -324 l29 -17 0 -1736 c0
-1733 0 -1736 -20 -1758 l-21 -22 -1644 0 -1645 0 0 2200 0 2199 576 1 576 0
-6 -83z m-1176 -2108 l0 -2181 -210 259 -209 258 -1 1845 0 1845 203 77 c111
42 205 77 210 77 4 1 7 -980 7 -2180z m-655 2092 l200 -69 2 -1838 3 -1839
-88 -111 c-48 -61 -141 -179 -207 -263 -96 -123 -121 -149 -126 -134 -9 22
-12 4248 -3 4292 4 17 10 31 13 31 4 0 97 -31 206 -69z m513 -4146 l121 -150
-382 -7 c-374 -7 -441 -5 -435 12 2 5 92 121 201 259 l198 251 88 -107 c48
-60 142 -175 209 -258z"/>
<path d="M8491 6918 c-52 -26 -95 -88 -110 -159 -6 -28 -11 -112 -11 -188 0
-172 19 -247 77 -303 48 -47 79 -58 157 -58 115 0 192 61 222 179 19 77 15
341 -7 404 -19 56 -80 121 -127 135 -64 19 -151 15 -201 -10z m216 -54 c16
-11 39 -42 52 -68 21 -41 25 -67 29 -173 10 -272 -42 -369 -195 -361 -77 5
-109 25 -143 94 -22 44 -25 63 -28 195 -6 204 21 289 102 325 45 20 148 14
183 -12z"/>
<path d="M8545 6860 c-30 -12 -61 -50 -76 -95 -22 -63 -19 -327 4 -386 26 -67
56 -92 119 -96 63 -5 107 18 135 69 16 28 18 59 18 223 0 212 -6 238 -68 275
-33 21 -96 25 -132 10z m112 -55 c33 -23 43 -76 43 -232 0 -191 -20 -243 -95
-243 -78 0 -95 43 -95 245 0 164 10 212 47 234 26 15 75 13 100 -4z"/>
<path d="M5494 4748 c-5 -18 2 -30 42 -66 190 -169 421 -208 641 -107 83 38
218 129 227 152 7 18 -10 43 -31 43 -8 0 -42 -20 -76 -44 -260 -184 -483 -182
-708 5 -53 44 -84 50 -95 17z"/>
<path d="M6932 4758 c-20 -20 -14 -35 31 -73 127 -109 260 -165 395 -165 46 0
104 5 130 11 99 23 318 147 344 194 12 20 -1 45 -24 45 -11 0 -47 -20 -81 -44
-260 -184 -483 -182 -708 5 -49 41 -67 47 -87 27z"/>
<path d="M6650 3613 c-48 -18 -90 -83 -90 -140 0 -108 126 -179 218 -123 125
76 72 272 -73 269 -22 0 -47 -3 -55 -6z"/>
<path d="M4118 7248 c-65 -22 -118 -44 -118 -49 0 -16 33 -10 125 21 49 16 90
28 92 26 3 -2 -21 -86 -51 -187 -49 -160 -63 -219 -53 -219 3 0 231 76 256 85
10 4 11 9 4 16 -10 10 -101 -15 -219 -58 -7 -2 15 83 47 189 32 106 59 199 59
205 0 18 -11 16 -142 -29z"/>
<path d="M2407 5903 c-16 -26 -47 -167 -38 -176 12 -12 23 11 46 96 12 46 14
72 7 79 -5 5 -12 6 -15 1z"/>
<path d="M2100 5801 c0 -9 133 -123 150 -129 6 -2 10 3 10 11 0 8 -31 40 -69
71 -65 53 -91 67 -91 47z"/>
<path d="M2027 5503 c-18 -17 -1 -23 66 -23 78 0 117 7 117 21 0 10 -173 12
-183 2z"/>
<path d="M9542 1448 c5 -17 429 -161 440 -150 15 15 -14 28 -217 96 -209 69
-229 74 -223 54z"/>
<path d="M9445 1321 c-8 -15 108 -122 119 -111 11 11 -18 45 -76 91 -21 17
-39 25 -43 20z"/>
<path d="M9325 1238 c-6 -15 68 -354 79 -366 4 -3 10 -1 15 4 10 10 -65 352
-80 368 -5 6 -11 3 -14 -6z"/>
</g>
</svg>
